<?xml version="1.0" encoding="UTF-8"?><svg id="b" xmlns="http://www.w3.org/2000/svg" viewBox="0 0 987.145 144.43"><g id="c"><path d="M63.451,144.414H9.616l-.744-19.493L.058,123.387v-45.586l63.393-13.73s-.339,7.161-.339,11.526c0,5.678,7.458,3.56,7.458,3.56l-7.119,65.258Z" style="fill:#fff; opacity:.2; stroke-width:0px;"/><path d="M81.992,91.105l1.639-15.535s-2.545-.467-4.982.901c-1.32.741-3.83,2.756-4.037,6.557-.154,2.834,1.506,5.374,3.27,6.639,1.944,1.401,4.11,1.439,4.11,1.439Z" style="fill:#fff; stroke-width:0px;"/><path d="M10.167,144.327l-1.248-.036c-.687-.02-1.232-.589-1.217-1.276.053-2.49.154-6.906-2.434-7.838-2.264-.815-3.913-1.545-4.4-2.714-.987-2.372-.907-9.305-.817-12.945.028-1.11.626-2.127,1.583-2.691l44.224-26.074c1.152-.679,2.424.675,1.675,1.782l-33.796,49.963c-.798,1.18-2.145,1.871-3.57,1.83ZM22.515,129.558l7.196-10.815c.426-.64.18-1.505-.516-1.832-.865-.406-2.121-.823-3.584-.782-1.511.047-4.671.666-6.615,3.937-1.45,2.439-1.158,5.458-.184,7.396.518,1.034,1.23,1.812,1.828,2.34.571.504,1.454.389,1.875-.244Z" style="fill:#fff; stroke-width:0px;"/><path d="M33.471,120.868c.98,1.941,1.266,4.959-.18,7.394-1.946,3.273-5.106,3.892-6.618,3.936-2.794.082-4.834-1.509-4.834-1.509l8.657-13.005s1.903,1.04,2.974,3.183Z" style="fill:#fff; stroke-width:0px;"/><path d="M78.81,123.508s-.104,5.312-4.228,9.044c-3.54,3.205-8.37,1.224-9.787,2.87-1.175,1.364-.696,4.166-.71,6.673-.007,1.291-1.055,2.334-2.346,2.334h-16.565c-1.635,0-2.769-1.63-2.2-3.162,2.36-6.358,7.928-21.345,13.435-36.082,4.867-13.026,11.038-29.402,12.867-32.288,2.278-3.59,8.835-5.49,12.585-6.309,1.346-.294,2.585.81,2.448,2.18l-5.499,54.739ZM81.992,91.105l1.639-15.535s-2.545-.467-4.982.901c-1.32.741-3.83,2.756-4.037,6.557-.154,2.834,1.506,5.374,3.27,6.639,1.944,1.401,4.11,1.439,4.11,1.439Z" style="fill:#fff; stroke-width:0px;"/><path d="M87.812,77.022c1.762,1.269,3.418,3.806,3.264,6.637-.206,3.807-2.716,5.819-4.034,6.557-2.438,1.367-4.98.901-4.98.901l1.633-15.534s2.172.039,4.117,1.438Z" style="fill:#fff; stroke-width:0px;"/><path d="M21.79,130.647l8.654-13.007s-2.041-1.59-4.833-1.512c-1.511.047-4.671.666-6.615,3.937-1.45,2.439-1.158,5.458-.184,7.396,1.074,2.143,2.978,3.186,2.978,3.186Z" style="fill:#fff; stroke-width:0px;"/><path d="M.255,89.923L.127,24.91c-.177-4.173,2.721-7.242,6.385-7.316.102-.002.206-.003.311-.002,6.525.062,6.749,4.452,6.737,5.235-.002.131-.004.261-.004.392l.299,41.585c.003,1.096,1.137,1.824,2.135,1.37l.01-.005c.539-.245.886-.783.886-1.375l-.17-53.891c0-1.162.324-2.311.988-3.265.89-1.28,2.572-2.586,5.742-2.689,2.064-.067,3.565.573,4.635,1.399,1.52,1.174,2.369,3.02,2.374,4.941l.299,47.104c.002.86.72,1.544,1.579,1.505h0c.809-.037,1.445-.706,1.441-1.516l-.434-52.325c-.006-1.205.338-2.396,1.041-3.375C35.303,1.402,37.02.097,40.207.004c1.358-.039,2.466.234,3.364.664,2.166,1.038,3.502,3.274,3.507,5.676l.134,48.601c.001.634.398,1.199.994,1.416h.003c.985.359,2.027-.37,2.027-1.418V15.437c0-3.523,2.749-6.475,6.268-6.631.106-.005.214-.008.324-.01.103-.002.204-.003.304-.002,3.418.026,6.151,2.86,6.16,6.278l.13,50.264c.002.619-.375,1.177-.95,1.407L2.156,90.815c-.991.395-2.068-.333-1.901-.891Z" style="fill:#fff; stroke-width:0px;"/><path d="M113.436,125.922c0-.533.16-1.28.48-2.24l37.918-105.115c.64-1.705,2.772-2.56,6.399-2.56h4.64c3.84,0,5.972.855,6.399,2.56l37.918,105.275c.32.747.48,1.44.48,2.08,0,1.815-2.295,2.72-6.88,2.72h-1.28c-3.735,0-5.867-.852-6.4-2.56l-9.439-26.239h-47.038l-9.12,26.239c-.535,1.707-2.668,2.56-6.4,2.56h-.8c-4.587,0-6.88-.905-6.88-2.72ZM179.353,87.683l-16.799-47.678c-.535-1.705-1.175-4.8-1.92-9.28h-.32c-.855,4.267-1.655,7.36-2.4,9.28l-16.8,47.678h38.238Z" style="fill:#fff; stroke-width:0px;"/><path d="M234.149,119.602c-7.519-6.452-11.279-15.492-11.279-27.119V19.526c0-2.345,2.132-3.52,6.399-3.52h1.28c4.265,0,6.4,1.175,6.4,3.52v73.437c0,4.695,1.28,8.88,3.84,12.559,2.56,3.68,6.08,6.535,10.559,8.559,4.48,2.028,9.545,3.04,15.199,3.04s10.719-1.04,15.199-3.12c4.48-2.08,8-4.96,10.559-8.64,2.56-3.68,3.84-7.812,3.84-12.399V19.526c0-2.345,2.133-3.52,6.4-3.52h1.28c4.265,0,6.399,1.175,6.399,3.52v72.957c0,11.627-3.787,20.667-11.359,27.119-7.575,6.455-18.347,9.68-32.319,9.68-14.079,0-24.879-3.225-32.399-9.68Z" style="fill:#fff; stroke-width:0px;"/><path d="M340.143,127.202c-.747-.745-1.12-1.972-1.12-3.68V21.126c0-1.705.373-2.932,1.12-3.68.745-.745,1.972-1.12,3.68-1.12h32.318c14.932,0,26.904,4.455,35.918,13.359,9.012,8.907,13.52,23.119,13.52,42.638,0,19.627-4.507,33.866-13.52,42.718-9.014,8.855-20.987,13.279-35.918,13.279h-32.318c-1.708,0-2.935-.373-3.68-1.12ZM375.021,116.162c10.772,0,19.464-3.52,26.079-10.56,6.613-7.04,9.92-18.132,9.92-33.278,0-15.039-3.307-26.104-9.92-33.199-6.614-7.092-15.307-10.639-26.079-10.639h-21.919v87.676h21.919Z" style="fill:#fff; stroke-width:0px;"/><path d="M450.217,125.122V19.526c0-2.345,2.133-3.52,6.4-3.52h1.28c4.265,0,6.399,1.175,6.399,3.52v105.595c0,2.347-2.135,3.52-6.399,3.52h-1.28c-4.267,0-6.4-1.172-6.4-3.52Z" style="fill:#fff; stroke-width:0px;"/><path d="M495.493,125.122V21.126c0-1.705.373-2.932,1.12-3.68.745-.745,1.972-1.12,3.68-1.12h50.398c1.173,0,2,.375,2.48,1.12.48.747.72,1.975.72,3.68v2.56c0,1.707-.24,2.935-.72,3.68-.48.747-1.307,1.12-2.48,1.12h-41.118v36.478h38.238c1.173,0,2,.375,2.48,1.12.48.747.72,1.975.72,3.68v2.56c0,1.707-.24,2.935-.72,3.68-.48.747-1.307,1.12-2.48,1.12h-38.238v47.998c0,2.347-2.135,3.52-6.399,3.52h-1.28c-4.267,0-6.4-1.172-6.4-3.52Z" style="fill:#fff; stroke-width:0px;"/><path d="M562.369,125.922c0-.533.16-1.28.48-2.24l37.918-105.115c.64-1.705,2.772-2.56,6.399-2.56h4.64c3.84,0,5.972.855,6.399,2.56l37.918,105.275c.32.747.48,1.44.48,2.08,0,1.815-2.295,2.72-6.88,2.72h-1.28c-3.735,0-5.867-.852-6.4-2.56l-9.439-26.239h-47.038l-9.12,26.239c-.535,1.707-2.668,2.56-6.4,2.56h-.8c-4.587,0-6.88-.905-6.88-2.72ZM628.286,87.683l-16.799-47.678c-.535-1.705-1.175-4.8-1.92-9.28h-.32c-.855,4.267-1.655,7.36-2.4,9.28l-16.8,47.678h38.238Z" style="fill:#fff; stroke-width:0px;"/><path d="M674.043,125.122V21.126c0-1.705.373-2.932,1.12-3.68.745-.745,1.972-1.12,3.68-1.12h26.879c12.799,0,22.424,2.267,28.879,6.8,6.452,4.535,9.679,11.707,9.679,21.519,0,6.615-1.6,12.187-4.8,16.719-3.2,4.535-7.735,7.975-13.599,10.319v.64c3.092,1.067,5.68,3.147,7.76,6.24,2.08,3.095,4.292,7.68,6.64,13.759l12.48,31.519c.32.96.48,1.707.48,2.24,0,1.707-2.24,2.56-6.72,2.56h-1.6c-1.6,0-2.988-.24-4.16-.72-1.175-.48-1.92-1.093-2.24-1.84l-12.16-31.359c-2.347-6.08-5.28-10.212-8.8-12.399-3.52-2.185-8.535-3.28-15.039-3.28h-14.4v46.078c0,2.347-2.135,3.52-6.399,3.52h-1.28c-4.267,0-6.4-1.172-6.4-3.52ZM709.241,66.884c3.732,0,7.172-.905,10.32-2.72,3.145-1.812,5.625-4.212,7.44-7.2,1.812-2.985,2.72-6.24,2.72-9.76,0-6.292-1.92-10.984-5.76-14.079-3.84-3.092-9.12-4.64-15.84-4.64h-19.999v38.398h21.119Z" style="fill:#fff; stroke-width:0px;"/><path d="M817.074,95.043l-28.479-49.598c-.96-1.6-2.24-4-3.84-7.2l-.64.16c.213,1.92.32,4.855.32,8.8v77.917c0,2.347-2.135,3.52-6.4,3.52h-1.12c-4.267,0-6.399-1.172-6.399-3.52V19.526c0-2.345,2.132-3.52,6.399-3.52h5.76c3.413,0,5.653.96,6.72,2.88l30.238,52.478c1.92,3.307,3.305,6.667,4.16,10.08.852-2.665,2.505-6.185,4.96-10.56l29.439-51.998c1.065-1.92,3.305-2.88,6.72-2.88h5.28c4.265,0,6.4,1.175,6.4,3.52v105.595c0,2.347-2.135,3.52-6.4,3.52h-1.12c-4.267,0-6.4-1.172-6.4-3.52V48.165c0-3.945.105-6.88.32-8.8l-.64-.16c-1.6,3.2-2.88,5.6-3.84,7.2l-27.999,48.638c-.748,1.387-1.92,2.08-3.52,2.08h-6.399c-1.6,0-2.775-.692-3.52-2.08Z" style="fill:#fff; stroke-width:0px;"/><path d="M892.909,125.922c0-.533.16-1.28.48-2.24l37.918-105.115c.64-1.705,2.772-2.56,6.399-2.56h4.64c3.84,0,5.972.855,6.399,2.56l37.918,105.275c.32.747.48,1.44.48,2.08,0,1.815-2.295,2.72-6.88,2.72h-1.28c-3.735,0-5.867-.852-6.4-2.56l-9.439-26.239h-47.038l-9.12,26.239c-.535,1.707-2.668,2.56-6.4,2.56h-.8c-4.587,0-6.88-.905-6.88-2.72ZM958.826,87.683l-16.799-47.678c-.535-1.705-1.175-4.8-1.92-9.28h-.32c-.855,4.267-1.655,7.36-2.4,9.28l-16.8,47.678h38.238Z" style="fill:#fff; stroke-width:0px;"/></g></svg>